<svg width="150" height="150" viewBox="0 0 150 150" fill="none" xmlns="http://www.w3.org/2000/svg">
<path d="M91.1427 139L91.5074 138.563L106.342 120.163H86.6038C61.8553 120.163 41.7204 99.9033 41.7204 75C41.7204 50.0957 61.8553 29.8357 86.6038 29.8357H109.66L125 11H86.6038C51.5319 11 23 39.7102 23 75C23 110.29 51.5319 139 86.6038 139H91.1427Z" fill="#FFFFFF"/>
<path d="M23 74.7225C23 90.934 29.083 105.742 39.0696 117L51.0894 102.172C45.223 94.5718 41.7194 85.0526 41.7194 74.7225C41.7194 49.9272 61.8553 29.755 86.6038 29.755H109.798L125 11H86.6038C51.5319 11 23 39.5857 23 74.7225Z" fill="#66BBFF"/>
<path d="M106.258 120L125 96.8998V65H85.1834L70 83.7393H106.258V120Z" fill="#FFFFFF"/>
</svg>
